<svg fill="none" height="24" viewBox="0 0 24 24" width="24" xmlns="http://www.w3.org/2000/svg"><path clip-rule="evenodd" d="m22 12c0 3.0134-1.3328 5.7154-3.4412 7.5488-1.7557 1.5268-4.0493 2.4512-6.5588 2.4512-2.50948 0-4.80306-.9244-6.55883-2.4512-2.10832-1.8334-3.44117-4.5354-3.44117-7.5488 0-5.52285 4.47715-10 10-10 5.5228 0 10 4.47715 10 10zm-10 7c1.7567 0 3.3622-.6471 4.5912-1.7158.1415-.1231.278-.2517.4091-.3856-1.0809-1.7483-2.917-2.8986-5.0003-2.8986-2.08325 0-3.9194 1.1503-5.00031 2.8986.13117.1339.26766.2625.40915.3856 1.22904 1.0687 2.83456 1.7158 4.59116 1.7158zm0-7c1.6569 0 3-1.3431 3-3 0-1.65685-1.3431-3-3-3s-3 1.34315-3 3c0 1.6569 1.3431 3 3 3z" fill="#28303f" fill-rule="evenodd"/></svg>